{
    "asset" : {
        "generator" : "Khronos glTF Blender I/O v1.6.16",
        "version" : "2.0"
    },
    "scene" : 0,
    "scenes" : [
        {
            "name" : "Scene",
            "nodes" : [
                0
            ]
        }
    ],
    "nodes" : [
        {
            "mesh" : 0,
            "name" : "Sphere.045",
            "scale" : [
                -3.2158796787261963,
                3.2158796787261963,
                -3.2158796787261963
            ]
        }
    ],
    "meshes" : [
        {
            "name" : "Sphere.098",
            "primitives" : [
                {
                    "attributes" : {
                        "POSITION" : 0,
                        "NORMAL" : 1,
                        "TEXCOORD_0" : 2
                    },
                    "indices" : 3
                }
            ]
        }
    ],
    "accessors" : [
        {
            "bufferView" : 0,
            "componentType" : 5126,
            "count" : 17654,
            "max" : [
                4.5944366455078125,
                0.6147751808166504,
                9.747283935546875
            ],
            "min" : [
                -4.745433330535889,
                -3.841261625289917,
                -9.602770805358887
            ],
            "type" : "VEC3"
        },
        {
            "bufferView" : 1,
            "componentType" : 5126,
            "count" : 17654,
            "type" : "VEC3"
        },
        {
            "bufferView" : 2,
            "componentType" : 5126,
            "count" : 17654,
            "type" : "VEC2"
        },
        {
            "bufferView" : 3,
            "componentType" : 5123,
            "count" : 18006,
            "type" : "SCALAR"
        }
    ],
    "bufferViews" : [
        {
            "buffer" : 0,
            "byteLength" : 211848,
            "byteOffset" : 0
        },
        {
            "buffer" : 0,
            "byteLength" : 211848,
            "byteOffset" : 211848
        },
        {
            "buffer" : 0,
            "byteLength" : 141232,
            "byteOffset" : 423696
        },
        {
            "buffer" : 0,
            "byteLength" : 36012,
            "byteOffset" : 564928
        }
    ],
    "buffers" : [
        {
            "byteLength" : 600940,
            "uri" : "data:application/octet-stream;base64,"
        }
    ]
}
