{
    "asset" : {
        "generator" : "Khronos glTF Blender I/O v1.6.16",
        "version" : "2.0"
    },
    "scene" : 0,
    "scenes" : [
        {
            "name" : "Scene",
            "nodes" : [
                0
            ]
        }
    ],
    "nodes" : [
        {
            "mesh" : 0,
            "name" : "Sphere.003",
            "scale" : [
                0.16928212344646454,
                0.16928212344646454,
                0.16928212344646454
            ]
        }
    ],
    "meshes" : [
        {
            "name" : "Sphere.001",
            "primitives" : [
                {
                    "attributes" : {
                        "POSITION" : 0,
                        "NORMAL" : 1,
                        "TEXCOORD_0" : 2
                    },
                    "indices" : 3
                }
            ]
        }
    ],
    "accessors" : [
        {
            "bufferView" : 0,
            "componentType" : 5126,
            "count" : 35182,
            "max" : [
                134.7726287841797,
                10.8121337890625,
                407.36175537109375
            ],
            "min" : [
                -143.99578857421875,
                -177.93539428710938,
                -416.0102233886719
            ],
            "type" : "VEC3"
        },
        {
            "bufferView" : 1,
            "componentType" : 5126,
            "count" : 35182,
            "type" : "VEC3"
        },
        {
            "bufferView" : 2,
            "componentType" : 5126,
            "count" : 35182,
            "type" : "VEC2"
        },
        {
            "bufferView" : 3,
            "componentType" : 5123,
            "count" : 35628,
            "type" : "SCALAR"
        }
    ],
    "bufferViews" : [
        {
            "buffer" : 0,
            "byteLength" : 422184,
            "byteOffset" : 0
        },
        {
            "buffer" : 0,
            "byteLength" : 422184,
            "byteOffset" : 422184
        },
        {
            "buffer" : 0,
            "byteLength" : 281456,
            "byteOffset" : 844368
        },
        {
            "buffer" : 0,
            "byteLength" : 71256,
            "byteOffset" : 1125824
        }
    ],
    "buffers" : [
        {
            "byteLength" : 1197080,
            "uri" : "data:application/octet-stream;base64,"
        }
    ]
}
